<svg width="1em" height="1em" viewBox="0 0 64 64" xmlns="http://www.w3.org/2000/svg">
<path d="M59 17.3664C59 16.0595 57.9296 15 56.6092 15L7.39084 15C6.07079 15 5 16.0594 5 17.3664L5.081 45.5321C5.08094 45.5395 5.08058 45.5466 5.08058 45.554C5.08058 46.8606 6.15097 47.9204 7.47142 47.9204L25.3786 48C26.6994 48 27.77 46.9401 27.77 45.6336L29.6092 33.0902L29.649 33.0902C29.8516 31.9862 30.8263 31.1483 32 31.1483C33.1737 31.1483 34.1479 31.9862 34.3503 33.0902L34.3908 33.0902L36.23 45.6336C36.23 46.9401 37.3008 48 38.6208 48L56.6092 47.9204C57.9296 47.9204 59 46.8606 59 45.554L59 17.3664ZM51.679 33.0902C51.679 36.5778 48.8229 39.4047 45.2993 39.4047C41.7753 39.4047 38.9191 36.5778 38.9191 33.0902C38.9191 29.6025 41.7753 26.7756 45.2993 26.7756C48.8229 26.7756 51.679 29.6025 51.679 33.0902ZM25.2202 33.0902C25.2202 36.5778 22.3638 39.4047 18.8406 39.4047C15.3166 39.4047 12.4603 36.5778 12.4603 33.0902C12.4603 29.6025 15.3166 26.7756 18.8406 26.7756C22.3638 26.7756 25.2202 29.6025 25.2202 33.0902Z" fill="currentColor"/>
</svg>
