<svg width="1.5em" height="1.5em" viewBox="0 0 64 64" fill="none" xmlns="http://www.w3.org/2000/svg">
<path fill-rule="evenodd" clip-rule="evenodd" d="M8 0C3.58172 0 0 3.58172 0 8V56C0 60.4183 3.58172 64 8 64H56C60.4183 64 64 60.4183 64 56V8C64 3.58172 60.4183 0 56 0H8ZM54.7863 16.5962C56.0089 16.5962 57 17.5531 57 18.7337V44.1945C57 45.3746 56.0089 46.332 54.7863 46.332L38.1304 46.4038C36.9081 46.4038 35.9166 45.4465 35.9166 44.2663L34.2137 32.9363H34.1762C33.9888 31.9392 33.0868 31.1823 32 31.1823C30.9132 31.1823 30.0107 31.9392 29.8232 32.9363H29.7863L28.0833 44.2663C28.0833 45.4465 27.0921 46.4038 25.869 46.4038L9.28835 46.332C8.06571 46.332 7.07461 45.3746 7.07461 44.1945C7.07461 44.1878 7.07494 44.1813 7.075 44.1747L7 18.7337C7 17.5531 7.99148 16.5962 9.21374 16.5962L54.7863 16.5962ZM44.3142 38.64C47.5768 38.64 50.2213 36.0866 50.2213 32.9363C50.2213 29.7861 47.5768 27.2327 44.3142 27.2327C41.0512 27.2327 38.4065 29.7861 38.4065 32.9363C38.4065 36.0866 41.0512 38.64 44.3142 38.64ZM19.8154 38.64C23.0776 38.64 25.7224 36.0866 25.7224 32.9363C25.7224 29.7861 23.0776 27.2327 19.8154 27.2327C16.5524 27.2327 13.9077 29.7861 13.9077 32.9363C13.9077 36.0866 16.5524 38.64 19.8154 38.64Z" fill="currentColor"/>
</svg>
