<svg width="1.5em" height="1.5em" viewBox="0 0 64 64" fill="none" xmlns="http://www.w3.org/2000/svg">
    <path fill-rule="evenodd" clip-rule="evenodd" d="M8 0C3.58172 0 0 3.58172 0 8V56C0 60.4183 3.58172 64 8 64H56C60.4183 64 64 60.4183 64 56V8C64 3.58172 60.4183 0 56 0H8ZM55.6977 16C56.9693 16 58 16.9952 58 18.223V44.7022C58 45.9296 56.9693 46.9253 55.6977 46.9253L38.3756 47C37.1045 47 36.0733 46.0044 36.0733 44.777L34.3023 32.9938H34.2633C34.0683 31.9568 33.1303 31.1696 32 31.1696C30.8697 31.1696 29.9312 31.9568 29.7361 32.9938H29.6977L27.9267 44.777C27.9267 46.0044 26.8958 47 25.6238 47L8.37989 46.9253C7.10834 46.9253 6.0776 45.9296 6.0776 44.7022C6.0776 44.6984 6.0777 44.6947 6.07781 44.6909C6.07789 44.6878 6.07797 44.6848 6.078 44.6817L6 18.223C6 16.9952 7.03113 16 8.30229 16L55.6977 16ZM44.8068 38.9256C48.1999 38.9256 50.9501 36.2701 50.9501 32.9938C50.9501 29.7175 48.1999 27.062 44.8068 27.062C41.4133 27.062 38.6628 29.7175 38.6628 32.9938C38.6628 36.2701 41.4133 38.9256 44.8068 38.9256ZM19.328 38.9256C22.7207 38.9256 25.4713 36.2701 25.4713 32.9938C25.4713 29.7175 22.7207 27.062 19.328 27.062C15.9345 27.062 13.184 29.7175 13.184 32.9938C13.184 36.2701 15.9345 38.9256 19.328 38.9256Z" fill="currentColor"/>
</svg>
