<?xml version="1.0" encoding="UTF-8" standalone="no"?>
<svg
   width="1000"
   height="167.96814"
   viewBox="0 0 1000 167.96814"
   fill="none"
   version="1.1"
   id="svg3"
   xmlns="http://www.w3.org/2000/svg"
   xmlns:svg="http://www.w3.org/2000/svg">
  <defs
     id="defs3" />
  <g
     id="logo-horizontal-branco"
     style="fill:#ffffff;fill-opacity:1;"
     transform="scale(0.9598179)">
    <path
       d="m 155.52499,175.00001 23.76402,-44.05765 h 124.96677 l 24.01321,44.05765 h 15.34532 L 250.3157,-4.9917736e-8 H 233.47828 L 139.94771,175.00001 Z M 241.64881,12.702459 h 0.49636 L 297.57835,117.73944 H 186.21563 Z"
       fill="#ffffff"
       id="LAB_A"
       style="fill:#ffffff;fill-opacity:1;" />
    <path
       d="M 365.91648,8.2173804e-8 C 361.6623,8.2173804e-8 358.21394,3.4688131 358.21394,7.7480789 V 167.25162 c 0,4.27862 3.44836,7.74839 7.70254,7.74839 l 91.67666,-0.26284 c 0.0235,0.001 0.0469,0.002 0.0702,0.002 4.25315,0 7.70254,-3.46874 7.70254,-7.74839 l 0.25977,-58.0324 c 0,-4.28066 -3.4504,-7.75042 -7.70254,-7.75042 l -40.82719,-5.95991 v -0.129275 c -3.59404,-0.656362 -6.32116,-3.815005 -6.32116,-7.618803 0,-3.803799 2.72712,-6.960812 6.32116,-7.616766 v -0.131314 l 40.82724,-5.960225 c 4.25214,0 7.70254,-3.470168 7.70254,-7.748078 L 465.36597,7.7480789 C 465.36597,3.4688131 461.91658,8.2173803e-8 457.66343,8.2173803e-8 Z M 417.09596,23.72548 c 11.35159,0 20.55268,9.255784 20.55268,20.674821 0,11.420462 -9.20109,20.676858 -20.55268,20.676858 -11.35262,0 -20.5537,-9.256396 -20.5537,-20.676858 0,-11.419037 9.20108,-20.674821 20.5537,-20.674821 z m 0,85.74638 c 11.35159,0 20.55268,9.2571 20.55268,20.67491 0,11.41986 -9.20109,20.67595 -20.55268,20.67595 -11.35262,0 -20.5537,-9.25609 -20.5537,-20.67595 0,-11.41781 9.20108,-20.67491 20.5537,-20.67491 z"
       fill="#ffffff"
       id="LAB_B"
       style="fill:#ffffff;fill-opacity:1;" />
    <path
       style="fill:#ffffff;fill-opacity:1;"
       d="m 906.57054,175.00001 h 22.42758 l 5.82093,-20.05564 c 0.59119,-1.78484 3.08076,-8.71962 11.75026,-8.71962 h 54.23859 c 8.4199,0 11.0344,6.93478 11.5018,8.71962 l 6.1779,20.05564 h 23.3767 L 991.18922,1.2868883e-7 h -35.12601 z m 39.04958,-59.4448 24.55916,-91.805489 c 0.35799,-1.784837 1.19773,-3.225185 2.97234,-3.225185 1.66517,0 2.61436,1.440348 3.08179,3.225185 l 25.39889,91.805489 c 0.5922,2.61435 1.5414,11.694 -9.02646,11.694 h -38.08403 c -10.56787,0 -9.61767,-8.95487 -8.90169,-11.694 z"
       id="META_A" />
    <path
       style="fill:#ffffff;fill-opacity:1;"
       d="M 835.61686,30.309433 V 175.00001 h 21.94481 V 29.604806 c 0,-6.32487 4.63751,-10.755358 10.69163,-10.755358 h 38.31724 V 1.286888e-7 H 786.71642 V 18.849448 h 37.38338 c 6.77012,0 11.51706,4.774977 11.51706,11.459985 z"
       id="META_T" />
    <path
       style="fill:#ffffff;fill-opacity:1;"
       d="m 666.20819,175.00001 h 109.53582 v -18.86609 h -77.02314 c -6.28836,0 -10.44309,-4.17928 -10.44309,-10.50446 V 81.879366 c 0,-6.434517 4.15473,-10.614616 10.44309,-10.614616 h 77.02314 V 52.399684 h -77.84857 c -5.82092,0 -9.61766,-3.585324 -9.61766,-8.955178 V 27.444488 c 0,-5.244762 3.79674,-8.59504 9.61766,-8.59504 h 77.84857 V 1.286888e-7 H 666.20819 Z"
       id="META_E" />
    <path
       style="fill:#ffffff;fill-opacity:1;"
       d="m 509.51532,175.00001 h 22.06857 V 44.994502 c 0,-4.64968 2.49059,-7.154692 5.57135,-7.154692 1.89939,0 4.04734,0.954914 5.94571,3.224981 l 28.12371,31.875149 h 0.35799 l 27.99791,-32.360379 c 1.8994,-2.270068 4.03097,-3.334731 5.82093,-3.334731 3.20657,0 5.80558,2.614557 5.80558,7.279988 V 175.00001 h 22.08391 V 1.286888e-7 H 610.86442 L 578.81917,36.399564 c -2.38114,2.504909 -4.98015,3.819961 -7.48609,3.819961 -2.48956,0 -5.08959,-1.189858 -7.47074,-3.819961 L 531.58389,1.286888e-7 h -22.06857 z"
       id="META_M" />
    <path
       d="M 133.13672,175 V 161.81432 H 14.599627 V 9.9800141e-6 H 0 V 175 Z"
       style="fill:#ffffff;fill-opacity:1;"
       id="LAB_L" />
  </g>
</svg>
