<?xml version="1.0" encoding="UTF-8" standalone="no"?>
<svg
   width="500"
   height="372.89636"
   viewBox="0 0 500.00002 372.89637"
   fill="none"
   version="1.1"
   id="svg3"
   xmlns="http://www.w3.org/2000/svg"
   xmlns:svg="http://www.w3.org/2000/svg">
  <defs
     id="defs3" />
  <g
     id="logo-vertical-preto"
     style="fill:#000000;fill-opacity:1;stroke-width:0.931251"
     transform="scale(1.0738239)">
    <path
       d="m 155.52499,175.00001 23.76402,-44.05765 h 124.96677 l 24.01321,44.05765 h 15.34532 L 250.3157,-4.9917736e-8 H 233.47828 L 139.94771,175.00001 Z M 241.64881,12.702459 h 0.49636 L 297.57835,117.73944 H 186.21563 Z"
       fill="#000000"
       id="LAB_A"
       style="fill:#000000;fill-opacity:1;stroke-width:0.931251" />
    <path
       d="M 365.91648,8.2173804e-8 C 361.6623,8.2173804e-8 358.21394,3.4688131 358.21394,7.7480789 V 167.25162 c 0,4.27862 3.44836,7.74839 7.70254,7.74839 l 91.67666,-0.26284 c 0.0235,0.001 0.0469,0.002 0.0702,0.002 4.25315,0 7.70254,-3.46874 7.70254,-7.74839 l 0.25977,-58.0324 c 0,-4.28066 -3.4504,-7.75042 -7.70254,-7.75042 l -40.82719,-5.95991 v -0.129275 c -3.59404,-0.656362 -6.32116,-3.815005 -6.32116,-7.618803 0,-3.803799 2.72712,-6.960812 6.32116,-7.616766 v -0.131314 l 40.82724,-5.960225 c 4.25214,0 7.70254,-3.470168 7.70254,-7.748078 L 465.36597,7.7480789 C 465.36597,3.4688131 461.91658,8.2173803e-8 457.66343,8.2173803e-8 Z M 417.09596,23.72548 c 11.35159,0 20.55268,9.255784 20.55268,20.674821 0,11.420462 -9.20109,20.676858 -20.55268,20.676858 -11.35262,0 -20.5537,-9.256396 -20.5537,-20.676858 0,-11.419037 9.20108,-20.674821 20.5537,-20.674821 z m 0,85.74638 c 11.35159,0 20.55268,9.2571 20.55268,20.67491 0,11.41986 -9.20109,20.67595 -20.55268,20.67595 -11.35262,0 -20.5537,-9.25609 -20.5537,-20.67595 0,-11.41781 9.20108,-20.67491 20.5537,-20.67491 z"
       fill="#000000"
       id="LAB_B"
       style="fill:#000000;fill-opacity:1;stroke-width:0.931251" />
    <path
       style="fill:#000000;fill-opacity:1;stroke-width:0.931251"
       d="m 347.28932,347.26026 h 19.61656 l 5.09135,-17.54192 c 0.51709,-1.56113 2.69463,-7.62672 10.27751,-7.62672 h 47.44047 c 7.36457,0 9.65137,6.06559 10.06019,7.62672 l 5.40358,17.54192 H 465.6257 L 421.30211,194.19431 H 390.5787 Z m 34.1552,-51.99414 21.48098,-80.29882 c 0.31312,-1.56113 1.04761,-2.82095 2.59979,-2.82095 1.45647,0 2.28669,1.25982 2.69553,2.82095 l 22.21546,80.29882 c 0.51797,2.28668 1.3482,10.2283 -7.89511,10.2283 H 389.2305 c -9.24332,0 -8.41222,-7.83248 -7.78598,-10.2283 z"
       id="META_A" />
    <path
       style="fill:#000000;fill-opacity:1;stroke-width:0.931251"
       d="M 285.22879,220.70483 V 347.26026 H 304.4231 V 220.08852 c 0,-5.53213 4.05625,-9.4073 9.35157,-9.4073 h 33.51465 V 194.19431 H 242.45741 v 16.48691 h 32.69784 c 5.92157,0 10.07354,4.17648 10.07354,10.02361 z"
       id="META_T" />
    <path
       style="fill:#000000;fill-opacity:1;stroke-width:0.931251"
       d="m 137.05338,347.26026 h 95.80688 V 330.7588 H 165.491 c -5.50019,0 -9.13418,-3.65546 -9.13418,-9.18786 v -55.75982 c 0,-5.62803 3.63399,-9.2842 9.13418,-9.2842 h 67.36926 v -16.50057 h -68.09123 c -5.09134,0 -8.41221,-3.13595 -8.41221,-7.83276 v -13.99461 c 0,-4.58741 3.32087,-7.51776 8.41221,-7.51776 h 68.09123 v -16.48691 h -95.80688 z"
       id="META_E" />
    <path
       style="fill:#000000;fill-opacity:1;stroke-width:0.931251"
       d="M 0,347.26026 H 19.302551 V 233.54931 c 0,-4.0669 2.178426,-6.25794 4.873051,-6.25794 1.661325,0 3.540057,0.83523 5.20049,2.82077 l 24.598755,27.88 h 0.31312 l 24.488725,-28.30441 c 1.661334,-1.98554 3.525738,-2.91676 5.091349,-2.91676 2.804666,0 5.077921,2.28685 5.077921,6.36753 V 347.26026 H 108.26193 V 194.19431 H 88.646259 L 60.61748,226.03164 c -2.082694,2.19095 -4.35595,3.34118 -6.547802,3.34118 -2.177525,0 -4.451674,-1.04073 -6.534377,-3.34118 L 19.302551,194.19431 H 0 Z"
       id="META_M" />
    <path
       d="M 133.13672,175 V 161.81432 H 14.599627 V 9.9800141e-6 H 0 V 175 Z"
       style="fill:#000000;fill-opacity:1;stroke-width:0.931251"
       id="LAB_L" />
  </g>
</svg>
