<svg width="1920" height="667" viewBox="0 0 1920 667" fill="none" xmlns="http://www.w3.org/2000/svg" stroke="currentColor" stroke-width="4">
    <g clip-path="url(#viewClip)">
        <path d="M493.146 26.2695C488.081 7.36785 468.654 -3.84853 449.752 1.21615L-254.781 189.995C-273.677 195.058 -284.899 214.487 -279.834 233.389L-169.53 640.413C-169.502 640.519 -169.479 640.625 -169.451 640.731C-164.388 659.627 -144.959 670.849 -126.057 665.784L130.582 598.251C149.489 593.185 160.707 573.751 155.644 554.855L133.363 366.397L133.934 366.244C132.556 349.502 143.26 333.646 160.062 329.144C176.863 324.642 194.055 333.024 201.23 348.212L201.81 348.057L276.744 522.407C281.807 541.302 301.242 552.523 320.137 547.46L577.322 477.314C596.224 472.25 607.439 452.816 602.375 433.921L493.146 26.2695ZM449.281 281.748C462.796 332.186 432.867 384.023 382.429 397.538C331.984 411.055 280.144 381.127 266.629 330.689C253.115 280.251 283.046 228.412 333.49 214.896C383.928 201.381 435.766 231.309 449.281 281.748ZM70.5383 383.231C84.0532 433.67 54.1189 485.509 3.68656 499.022C-46.7578 512.539 -98.598 482.611 -112.113 432.173C-125.628 381.734 -95.6967 329.896 -45.2523 316.38C5.18002 302.866 57.0234 332.793 70.5383 383.231Z"/>
        <path d="M815.684 26.2695C810.62 7.36785 791.192 -3.84853 772.291 1.21615L67.7576 189.995C48.8619 195.058 37.6396 214.487 42.7043 233.389L153.009 640.413C153.036 640.519 153.059 640.625 153.088 640.731C158.151 659.627 177.58 670.849 196.481 665.784L453.12 598.251C472.028 593.185 483.246 573.751 478.182 554.855L455.902 366.397L456.473 366.244C455.094 349.502 465.799 333.646 482.6 329.144C499.402 324.642 516.593 333.024 523.769 348.212L524.349 348.057L599.282 522.407C604.345 541.302 623.78 552.523 642.676 547.46L899.861 477.314C918.762 472.25 929.977 452.816 924.914 433.921L815.684 26.2695ZM771.819 281.748C785.334 332.186 755.406 384.023 704.967 397.538C654.523 411.055 602.683 381.127 589.168 330.689C575.653 280.251 605.584 228.412 656.029 214.896C706.467 201.381 758.304 231.309 771.819 281.748ZM393.077 383.231C406.592 433.67 376.657 485.509 326.225 499.022C275.781 512.539 223.941 482.611 210.426 432.173C196.911 381.734 226.842 329.896 277.286 316.38C327.719 302.866 379.562 332.793 393.077 383.231Z"/>
        <path d="M1138.22 26.2695C1133.16 7.36785 1113.73 -3.84853 1094.83 1.21615L390.296 189.995C371.4 195.058 360.178 214.487 365.243 233.389L475.547 640.413C475.575 640.519 475.598 640.625 475.626 640.731C480.689 659.627 500.118 670.849 519.02 665.784L775.659 598.251C794.566 593.185 805.784 573.751 800.721 554.855L778.44 366.397L779.011 366.244C777.633 349.502 788.338 333.646 805.139 329.144C821.94 324.642 839.132 333.024 846.308 348.212L846.887 348.057L921.821 522.407C926.884 541.302 946.319 552.523 965.214 547.46L1222.4 477.314C1241.3 472.25 1252.52 452.816 1247.45 433.921L1138.22 26.2695ZM1094.36 281.748C1107.87 332.186 1077.94 384.023 1027.51 397.538C977.062 411.055 925.221 381.127 911.706 330.689C898.192 280.251 928.123 228.412 978.567 214.896C1029.01 201.381 1080.84 231.309 1094.36 281.748ZM715.615 383.231C729.13 433.67 699.196 485.509 648.764 499.022C598.319 512.539 546.479 482.611 532.964 432.173C519.449 381.734 549.38 329.896 599.825 316.38C650.257 302.866 702.1 332.793 715.615 383.231Z"/>
        <path d="M1460.76 26.2695C1455.7 7.36785 1436.27 -3.84853 1417.37 1.21615L712.835 189.995C693.939 195.058 682.717 214.487 687.781 233.389L798.086 640.413C798.113 640.519 798.136 640.625 798.165 640.731C803.228 659.627 822.657 670.849 841.558 665.784L1098.2 598.251C1117.1 593.185 1128.32 573.751 1123.26 554.855L1100.98 366.397L1101.55 366.244C1100.17 349.502 1110.88 333.646 1127.68 329.144C1144.48 324.642 1161.67 333.024 1168.85 348.212L1169.43 348.057L1244.36 522.407C1249.42 541.302 1268.86 552.523 1287.75 547.46L1544.94 477.314C1563.84 472.25 1575.05 452.816 1569.99 433.921L1460.76 26.2695ZM1416.9 281.748C1430.41 332.186 1400.48 384.023 1350.04 397.538C1299.6 411.055 1247.76 381.127 1234.24 330.689C1220.73 280.251 1250.66 228.412 1301.11 214.896C1351.54 201.381 1403.38 231.309 1416.9 281.748ZM1038.15 383.231C1051.67 433.67 1021.73 485.509 971.302 499.022C920.858 512.539 869.017 482.611 855.503 432.173C841.988 381.734 871.919 329.896 922.363 316.38C972.795 302.866 1024.64 332.793 1038.15 383.231Z"/>
        <path d="M1783.3 26.2695C1778.23 7.36785 1758.81 -3.84853 1739.91 1.21615L1035.37 189.995C1016.48 195.058 1005.25 214.487 1010.32 233.389L1120.62 640.413C1120.65 640.519 1120.67 640.625 1120.7 640.731C1125.77 659.627 1145.2 670.849 1164.1 665.784L1420.74 598.251C1439.64 593.185 1450.86 573.751 1445.8 554.855L1423.52 366.397L1424.09 366.244C1422.71 349.502 1433.41 333.646 1450.22 329.144C1467.02 324.642 1484.21 333.024 1491.38 348.212L1491.96 348.057L1566.9 522.407C1571.96 541.302 1591.4 552.523 1610.29 547.46L1867.48 477.314C1886.38 472.25 1897.59 452.816 1892.53 433.921L1783.3 26.2695ZM1739.43 281.748C1752.95 332.186 1723.02 384.023 1672.58 397.538C1622.14 411.055 1570.3 381.127 1556.78 330.689C1543.27 280.251 1573.2 228.412 1623.64 214.896C1674.08 201.381 1725.92 231.309 1739.43 281.748ZM1360.69 383.231C1374.21 433.67 1344.27 485.509 1293.84 499.022C1243.4 512.539 1191.56 482.611 1178.04 432.173C1164.53 381.734 1194.46 329.896 1244.9 316.38C1295.33 302.866 1347.18 332.793 1360.69 383.231Z"/>
        <path d="M2105.84 26.2695C2100.77 7.36785 2081.35 -3.84853 2062.44 1.21615L1357.91 189.995C1339.02 195.058 1327.79 214.487 1332.86 233.389L1443.16 640.413C1443.19 640.519 1443.21 640.625 1443.24 640.731C1448.3 659.627 1467.73 670.849 1486.64 665.784L1743.27 598.251C1762.18 593.185 1773.4 573.751 1768.34 554.855L1746.06 366.397L1746.63 366.244C1745.25 349.502 1755.95 333.646 1772.75 329.144C1789.56 324.642 1806.75 333.024 1813.92 348.212L1814.5 348.057L1889.44 522.407C1894.5 541.302 1913.93 552.523 1932.83 547.46L2190.01 477.314C2208.92 472.25 2220.13 452.816 2215.07 433.921L2105.84 26.2695ZM2061.97 281.748C2075.49 332.186 2045.56 384.023 1995.12 397.538C1944.68 411.055 1892.84 381.127 1879.32 330.689C1865.81 280.251 1895.74 228.412 1946.18 214.896C1996.62 201.381 2048.46 231.309 2061.97 281.748ZM1683.23 383.231C1696.75 433.67 1666.81 485.509 1616.38 499.022C1565.93 512.539 1514.09 482.611 1500.58 432.173C1487.06 381.734 1517 329.896 1567.44 316.38C1617.87 302.866 1669.72 332.793 1683.23 383.231Z"/>
        <path d="M2428.38 26.2695C2423.31 7.36785 2403.88 -3.84853 2384.98 1.21615L1680.45 189.995C1661.55 195.058 1650.33 214.487 1655.4 233.389L1765.7 640.413C1765.73 640.519 1765.75 640.625 1765.78 640.731C1770.84 659.627 1790.27 670.849 1809.17 665.784L2065.81 598.251C2084.72 593.185 2095.94 573.751 2090.87 554.855L2068.59 366.397L2069.17 366.244C2067.79 349.502 2078.49 333.646 2095.29 329.144C2112.09 324.642 2129.29 333.024 2136.46 348.212L2137.04 348.057L2211.97 522.407C2217.04 541.302 2236.47 552.523 2255.37 547.46L2512.55 477.314C2531.45 472.25 2542.67 452.816 2537.61 433.921L2428.38 26.2695ZM2384.51 281.748C2398.03 332.186 2368.1 384.023 2317.66 397.538C2267.22 411.055 2215.38 381.127 2201.86 330.689C2188.35 280.251 2218.28 228.412 2268.72 214.896C2319.16 201.381 2371 231.309 2384.51 281.748ZM2005.77 383.231C2019.28 433.67 1989.35 485.509 1938.92 499.022C1888.47 512.539 1836.63 482.611 1823.12 432.173C1809.6 381.734 1839.53 329.896 1889.98 316.38C1940.41 302.866 1992.25 332.793 2005.77 383.231Z"/>
    </g>
    <defs>
        <clipPath id="viewClip">
            <rect width="1920" height="667"/>
        </clipPath>
    </defs>
</svg>
