<?xml version="1.0" encoding="UTF-8" standalone="no"?>
<svg
   width="4570"
   height="1084"
   viewBox="0 0 4570 1084"
   fill="none"
   version="1.1"
   id="svg7"
   xmlns="http://www.w3.org/2000/svg"
   xmlns:svg="http://www.w3.org/2000/svg">
  <defs
     id="grafismo-preto" />
  <path
     d="m 1255.57,44.5353 c -8.2,-30.6054 -39.66,-48.7668 -70.26,-40.56612 L 44.5347,309.638 C 13.939,317.837 -4.23214,349.296 3.96854,379.901 L 182.573,1038.95 c 0.044,0.17 0.081,0.34 0.127,0.52 8.198,30.59 39.658,48.76 70.263,40.56 L 668.51,970.683 c 30.615,-8.203 48.779,-39.671 40.581,-70.267 l -36.077,-305.149 0.925,-0.247 c -2.233,-27.109 15.101,-52.784 42.305,-60.073 27.205,-7.29 55.041,6.281 66.66,30.875 l 0.939,-0.251 121.331,282.305 c 8.198,30.596 39.667,48.764 70.263,40.566 L 1391.87,774.863 c 30.6,-8.201 48.76,-39.667 40.56,-70.263 z m -71.03,413.6677 c 21.89,81.669 -26.57,165.604 -108.24,187.487 -81.68,21.886 -165.619,-26.572 -187.503,-108.242 -21.883,-81.669 26.581,-165.605 108.26,-187.491 81.673,-21.883 165.603,26.577 187.483,108.246 z M 571.288,622.525 c 21.884,81.669 -26.586,165.606 -108.245,187.487 -81.679,21.885 -165.618,-26.573 -187.502,-108.242 -21.883,-81.669 26.581,-165.605 108.26,-187.491 81.66,-21.881 165.604,26.576 187.487,108.246 z"
     stroke="#ffffff"
     stroke-width="4"
     id="VR01" />
  <path
     d="m 1777.82,44.5353 c -8.2,-30.6054 -39.66,-48.7668 -70.26,-40.56612 L 566.786,309.638 c -30.596,8.199 -48.767,39.658 -40.566,70.263 l 178.604,659.049 c 0.044,0.17 0.081,0.34 0.127,0.52 8.198,30.59 39.658,48.76 70.263,40.56 L 1190.76,970.683 c 30.62,-8.203 48.78,-39.671 40.58,-70.267 l -36.07,-305.149 0.92,-0.247 c -2.23,-27.109 15.1,-52.784 42.31,-60.073 27.2,-7.29 55.04,6.281 66.66,30.875 l 0.93,-0.251 121.34,282.305 c 8.19,30.596 39.66,48.764 70.26,40.566 l 416.43,-113.579 c 30.6,-8.201 48.76,-39.667 40.57,-70.263 z M 1706.8,458.203 c 21.88,81.669 -26.58,165.604 -108.25,187.487 -81.68,21.886 -165.62,-26.572 -187.5,-108.242 -21.88,-81.669 26.58,-165.605 108.26,-187.491 81.67,-21.883 165.6,26.577 187.49,108.246 z m -613.26,164.322 c 21.88,81.669 -26.59,165.606 -108.246,187.487 -81.679,21.885 -165.618,-26.573 -187.501,-108.242 -21.884,-81.669 26.581,-165.605 108.26,-187.491 81.659,-21.881 165.607,26.576 187.487,108.246 z"
     stroke="#ffffff"
     stroke-width="4"
     id="VR02" />
  <path
     d="m 2300.07,44.5353 c -8.2,-30.6054 -39.65,-48.7668 -70.26,-40.56612 L 1089.04,309.638 c -30.6,8.199 -48.77,39.658 -40.57,70.263 l 178.61,659.049 c 0.04,0.17 0.08,0.34 0.12,0.52 8.2,30.59 39.66,48.76 70.27,40.56 l 415.54,-109.347 c 30.62,-8.203 48.78,-39.671 40.58,-70.267 l -36.07,-305.149 0.92,-0.247 c -2.23,-27.109 15.1,-52.784 42.31,-60.073 27.2,-7.29 55.04,6.281 66.66,30.875 l 0.94,-0.251 121.33,282.305 c 8.2,30.596 39.66,48.764 70.26,40.566 l 416.43,-113.579 c 30.61,-8.201 48.76,-39.667 40.57,-70.263 z m -71.02,413.6677 c 21.88,81.669 -26.58,165.604 -108.25,187.487 -81.68,21.886 -165.62,-26.572 -187.5,-108.242 -21.88,-81.669 26.58,-165.605 108.26,-187.491 81.67,-21.883 165.6,26.577 187.49,108.246 z m -613.26,164.322 c 21.88,81.669 -26.58,165.606 -108.24,187.487 -81.68,21.885 -165.62,-26.573 -187.51,-108.242 -21.88,-81.669 26.59,-165.605 108.26,-187.491 81.66,-21.881 165.61,26.576 187.49,108.246 z"
     stroke="#ffffff"
     stroke-width="4"
     id="VR03" />
  <path
     d="m 2822.32,44.5353 c -8.2,-30.6054 -39.65,-48.7668 -70.26,-40.56612 L 1611.29,309.638 c -30.6,8.199 -48.77,39.658 -40.57,70.263 l 178.61,659.049 c 0.04,0.17 0.08,0.34 0.12,0.52 8.2,30.59 39.66,48.76 70.27,40.56 l 415.54,-109.347 c 30.62,-8.203 48.78,-39.671 40.58,-70.267 l -36.07,-305.149 0.92,-0.247 c -2.23,-27.109 15.1,-52.784 42.31,-60.073 27.2,-7.29 55.04,6.281 66.66,30.875 l 0.94,-0.251 121.33,282.305 c 8.2,30.596 39.66,48.764 70.26,40.566 l 416.43,-113.579 c 30.61,-8.201 48.77,-39.667 40.57,-70.263 z M 2751.3,458.203 c 21.88,81.669 -26.58,165.604 -108.25,187.487 -81.68,21.886 -165.62,-26.572 -187.5,-108.242 -21.88,-81.669 26.58,-165.605 108.26,-187.491 81.67,-21.883 165.6,26.577 187.49,108.246 z m -613.26,164.322 c 21.88,81.669 -26.58,165.606 -108.24,187.487 -81.68,21.885 -165.62,-26.573 -187.51,-108.242 -21.88,-81.669 26.59,-165.605 108.26,-187.491 81.66,-21.881 165.61,26.576 187.49,108.246 z"
     stroke="#ffffff"
     stroke-width="4"
     id="VR04" />
  <path
     d="m 3344.57,44.5353 c -8.2,-30.6054 -39.65,-48.7668 -70.26,-40.56612 L 2133.54,309.638 c -30.6,8.199 -48.77,39.658 -40.57,70.263 l 178.61,659.049 c 0.04,0.17 0.08,0.34 0.12,0.52 8.2,30.59 39.66,48.76 70.27,40.56 l 415.54,-109.347 c 30.62,-8.203 48.78,-39.671 40.59,-70.267 l -36.08,-305.149 0.92,-0.247 c -2.23,-27.109 15.1,-52.784 42.31,-60.073 27.2,-7.29 55.04,6.281 66.66,30.875 l 0.94,-0.251 121.33,282.305 c 8.2,30.596 39.67,48.764 70.26,40.566 l 416.43,-113.579 c 30.61,-8.201 48.77,-39.667 40.57,-70.263 z m -71.02,413.6677 c 21.88,81.669 -26.58,165.604 -108.25,187.487 -81.68,21.886 -165.61,-26.572 -187.5,-108.242 -21.88,-81.669 26.58,-165.605 108.26,-187.491 81.67,-21.883 165.61,26.577 187.49,108.246 z m -613.26,164.322 c 21.89,81.669 -26.58,165.606 -108.24,187.487 -81.68,21.885 -165.62,-26.573 -187.5,-108.242 -21.89,-81.669 26.58,-165.605 108.26,-187.491 81.66,-21.881 165.6,26.576 187.48,108.246 z"
     stroke="#ffffff"
     stroke-width="4"
     id="VR05" />
  <path
     d="m 3866.83,44.5353 c -8.2,-30.6054 -39.66,-48.7668 -70.27,-40.56612 L 2655.79,309.638 c -30.6,8.199 -48.77,39.658 -40.57,70.263 l 178.61,659.049 c 0.04,0.17 0.08,0.34 0.13,0.52 8.19,30.59 39.65,48.76 70.26,40.56 l 415.55,-109.347 c 30.61,-8.203 48.77,-39.671 40.58,-70.267 l -36.08,-305.149 0.92,-0.247 c -2.23,-27.109 15.11,-52.784 42.31,-60.073 27.2,-7.29 55.04,6.281 66.66,30.875 l 0.94,-0.251 121.33,282.305 c 8.2,30.596 39.67,48.764 70.26,40.566 l 416.43,-113.579 c 30.61,-8.201 48.77,-39.667 40.57,-70.263 z M 3795.8,458.203 c 21.88,81.669 -26.58,165.604 -108.25,187.487 -81.67,21.886 -165.61,-26.572 -187.5,-108.242 -21.88,-81.669 26.58,-165.605 108.26,-187.491 81.67,-21.883 165.61,26.577 187.49,108.246 z m -613.26,164.322 c 21.89,81.669 -26.58,165.606 -108.24,187.487 -81.68,21.885 -165.62,-26.573 -187.5,-108.242 -21.89,-81.669 26.58,-165.605 108.26,-187.491 81.66,-21.881 165.6,26.576 187.48,108.246 z"
     stroke="#ffffff"
     stroke-width="4"
     id="VR06" />
  <path
     d="m 4389.08,44.5353 c -8.2,-30.6054 -39.66,-48.7668 -70.27,-40.56612 L 3178.04,309.638 c -30.59,8.199 -48.76,39.658 -40.56,70.263 l 178.6,659.049 c 0.04,0.17 0.08,0.34 0.13,0.52 8.2,30.59 39.65,48.76 70.26,40.56 l 415.55,-109.347 c 30.61,-8.203 48.78,-39.671 40.58,-70.267 l -36.08,-305.149 0.93,-0.247 c -2.24,-27.109 15.1,-52.784 42.3,-60.073 27.21,-7.29 55.04,6.281 66.66,30.875 l 0.94,-0.251 121.33,282.305 c 8.2,30.596 39.67,48.764 70.26,40.566 l 416.44,-113.579 c 30.6,-8.201 48.76,-39.667 40.56,-70.263 z m -71.03,413.6677 c 21.88,81.669 -26.57,165.604 -108.24,187.487 -81.68,21.886 -165.62,-26.572 -187.51,-108.242 -21.88,-81.669 26.59,-165.605 108.26,-187.491 81.67,-21.883 165.61,26.577 187.49,108.246 z M 3704.8,622.525 c 21.88,81.669 -26.59,165.606 -108.25,187.487 -81.68,21.885 -165.62,-26.573 -187.5,-108.242 -21.88,-81.669 26.58,-165.605 108.26,-187.491 81.66,-21.881 165.6,26.576 187.49,108.246 z"
     stroke="#ffffff"
     stroke-width="4"
     id="VR07" />
</svg>
